<mxfile host="app.diagrams.net" agent="Mozilla/5.0 (Macintosh; Intel Mac OS X 10_15_7) AppleWebKit/537.36 (KHTML, like Gecko) Chrome/137.0.0.0 Safari/537.36" version="27.1.5">
  <diagram id="k5zOIPOxMEVEV548pZkk" name="Page-1">
    <mxGraphModel dx="1301" dy="872" grid="1" gridSize="10" guides="1" tooltips="1" connect="1" arrows="1" fold="1" page="1" pageScale="1" pageWidth="827" pageHeight="1169" background="none" math="0" shadow="0">
      <root>
        <mxCell id="0" />
        <mxCell id="1" parent="0" />
        <mxCell id="9JrHhXIoi9-wvf1s2VBX-2" value="" style="edgeStyle=orthogonalEdgeStyle;rounded=0;orthogonalLoop=1;jettySize=auto;html=1;fontFamily=Menlo, Roboto Mono, Courier New, Courier, monospace, Inter, sans-serif;entryX=0.5;entryY=0;entryDx=0;entryDy=0;" parent="1" source="thDXJ9rHC7QRxlY3D63U-5" target="9JrHhXIoi9-wvf1s2VBX-1" edge="1">
          <mxGeometry relative="1" as="geometry">
            <Array as="points">
              <mxPoint x="480" y="170" />
              <mxPoint x="480" y="170" />
            </Array>
          </mxGeometry>
        </mxCell>
        <mxCell id="thDXJ9rHC7QRxlY3D63U-5" value="&lt;div style=&quot;overflow: auto; padding: 9.144px 13.716px; word-break: break-all; margin: 0px !important;&quot;&gt;&lt;font style=&quot;&quot;&gt;&lt;b style=&quot;font-size: 9px; text-wrap-mode: wrap;&quot;&gt;&amp;gt;&amp;gt; Pickup Tool&lt;br&gt;&lt;/b&gt;&lt;font size=&quot;1&quot;&gt;&lt;span style=&quot;text-wrap-mode: wrap;&quot;&gt;•••&lt;br&gt;&lt;/span&gt;&lt;/font&gt;&lt;i style=&quot;&quot;&gt;&lt;font size=&quot;1&quot;&gt;&lt;span style=&quot;text-wrap-mode: wrap;&quot;&gt;You grab the diagnostic tool. [+10]  &lt;br&gt;   (SCORE: 10 | HAZARDS: 0) &lt;br&gt;•••&lt;/span&gt;&lt;/font&gt;&lt;/i&gt;&lt;/font&gt;&lt;/div&gt;" style="whiteSpace=wrap;html=1;fontSize=11;rounded=0;fillColor=#FFE599;strokeWidth=3;fontFamily=Menlo, Roboto Mono, Courier New, Courier, monospace, Inter, sans-serif;" parent="1" vertex="1">
          <mxGeometry x="289.37" y="91" width="381.38" height="70" as="geometry" />
        </mxCell>
        <mxCell id="9JrHhXIoi9-wvf1s2VBX-4" value="" style="edgeStyle=orthogonalEdgeStyle;rounded=0;orthogonalLoop=1;jettySize=auto;html=1;fontFamily=Menlo, Roboto Mono, Courier New, Courier, monospace, Inter, sans-serif;" parent="1" source="9JrHhXIoi9-wvf1s2VBX-1" edge="1">
          <mxGeometry relative="1" as="geometry">
            <mxPoint x="480" y="280" as="targetPoint" />
            <Array as="points">
              <mxPoint x="480" y="280" />
              <mxPoint x="480" y="280" />
            </Array>
          </mxGeometry>
        </mxCell>
        <mxCell id="9JrHhXIoi9-wvf1s2VBX-1" value="&lt;div&gt;&lt;font style=&quot;background-color: transparent; color: light-dark(rgb(0, 0, 0), rgb(255, 255, 255)); font-size: 9px;&quot;&gt;╔&lt;/font&gt;&lt;span style=&quot;background-color: transparent; color: light-dark(rgb(0, 0, 0), rgb(255, 255, 255)); font-size: 9px;&quot;&gt;═════════════════════════&lt;/span&gt;&lt;span style=&quot;background-color: transparent; color: light-dark(rgb(0, 0, 0), rgb(255, 255, 255)); font-size: 9px;&quot;&gt;═════════════════════════&lt;/span&gt;&lt;span style=&quot;background-color: transparent; color: light-dark(rgb(0, 0, 0), rgb(255, 255, 255)); font-size: 9px;&quot;&gt;╗&lt;/span&gt;&lt;font style=&quot;font-size: 9px;&quot;&gt;&amp;nbsp;&amp;nbsp;&lt;/font&gt;&lt;/div&gt;&lt;div&gt;&lt;font style=&quot;font-size: 9px;&quot;&gt;&amp;nbsp; &amp;nbsp;&lt;b&gt;MAINTENANCE TUNNELS&amp;nbsp;&amp;nbsp;&lt;/b&gt;&lt;/font&gt;&lt;/div&gt;&lt;div&gt;&lt;b&gt;&lt;font style=&quot;font-size: 9px;&quot;&gt;&amp;nbsp; &amp;nbsp;The droid beeps angrily as you approach the exit.&amp;nbsp;&lt;/font&gt;&lt;/b&gt;&lt;/div&gt;&lt;div&gt;&lt;font style=&quot;font-size: 9px;&quot;&gt;&amp;lt;&amp;lt; ITEMS: ~No items are available~&amp;nbsp;&amp;nbsp;&lt;/font&gt;&lt;/div&gt;&lt;div&gt;&lt;font style=&quot;font-size: 9px;&quot;&gt;&amp;nbsp;&amp;lt;&amp;lt; OBSTACLE:&amp;nbsp;&amp;nbsp;&lt;span style=&quot;background-color: transparent; color: light-dark(rgb(0, 0, 0), rgb(255, 255, 255));&quot;&gt;&amp;nbsp;&lt;i&gt;Droid &lt;/i&gt;beeps angrily&amp;nbsp;&lt;/span&gt;&lt;/font&gt;&lt;/div&gt;&lt;div&gt;&lt;font style=&quot;font-size: 9px;&quot;&gt;&amp;lt;&amp;lt; EXITS: [east]&amp;nbsp;&amp;nbsp;&lt;/font&gt;&lt;/div&gt;&lt;div&gt;&lt;font style=&quot;font-size: 9px;&quot;&gt;╚&lt;/font&gt;&lt;font style=&quot;font-size: 9px;&quot;&gt;════════════&lt;/font&gt;&lt;span style=&quot;color: light-dark(rgb(0, 0, 0), rgb(255, 255, 255)); font-size: 9px; background-color: transparent;&quot;&gt;═════════════════════════&lt;/span&gt;&lt;span style=&quot;color: light-dark(rgb(0, 0, 0), rgb(255, 255, 255)); font-size: 9px; background-color: transparent;&quot;&gt;════════════&lt;/span&gt;&lt;font style=&quot;font-size: 9px;&quot;&gt;╝&amp;nbsp;&amp;nbsp;&lt;/font&gt;&lt;/div&gt;" style="whiteSpace=wrap;html=1;fontSize=11;rounded=0;fillColor=#FFE599;strokeWidth=3;fontFamily=Menlo, Roboto Mono, Courier New, Courier, monospace, Inter, sans-serif;" parent="1" vertex="1">
          <mxGeometry x="272.8" y="176" width="414.5" height="90" as="geometry" />
        </mxCell>
        <mxCell id="9JrHhXIoi9-wvf1s2VBX-8" value="" style="edgeStyle=orthogonalEdgeStyle;rounded=0;orthogonalLoop=1;jettySize=auto;html=1;fontFamily=Menlo, Roboto Mono, Courier New, Courier, monospace, Inter, sans-serif;" parent="1" source="9JrHhXIoi9-wvf1s2VBX-3" target="9JrHhXIoi9-wvf1s2VBX-6" edge="1">
          <mxGeometry relative="1" as="geometry">
            <Array as="points">
              <mxPoint x="480" y="360" />
              <mxPoint x="479" y="360" />
            </Array>
          </mxGeometry>
        </mxCell>
        <mxCell id="9JrHhXIoi9-wvf1s2VBX-3" value="&lt;div&gt;&lt;font style=&quot;&quot;&gt;&lt;b style=&quot;font-size: 9px;&quot;&gt;&amp;gt;&amp;gt;&amp;nbsp; Move East&lt;br&gt;&lt;/b&gt;&lt;font size=&quot;1&quot;&gt;•••&lt;/font&gt;&lt;br&gt;&lt;i style=&quot;font-size: 9px;&quot;&gt;The droid SHOVES you back! (+1 HAZARD)&amp;nbsp;&amp;nbsp;&lt;/i&gt;&lt;/font&gt;&lt;/div&gt;&lt;div&gt;&lt;font style=&quot;&quot;&gt;&lt;i style=&quot;font-size: 9px;&quot;&gt;&amp;nbsp; &amp;nbsp;(SCORE: 10 | HAZARDS: 1)&amp;nbsp;&amp;nbsp;&lt;/i&gt;&lt;br&gt;&lt;font size=&quot;1&quot;&gt;•••&lt;/font&gt;&lt;/font&gt;&lt;/div&gt;" style="whiteSpace=wrap;html=1;fontSize=11;rounded=0;fillColor=#FFE599;strokeWidth=3;spacing=2;spacingTop=-5;spacingLeft=0;spacingBottom=0;verticalAlign=top;fontFamily=Menlo, Roboto Mono, Courier New, Courier, monospace, Inter, sans-serif;" parent="1" vertex="1">
          <mxGeometry x="293.37" y="281" width="371.63" height="70" as="geometry" />
        </mxCell>
        <mxCell id="9JrHhXIoi9-wvf1s2VBX-13" value="" style="edgeStyle=orthogonalEdgeStyle;rounded=0;orthogonalLoop=1;jettySize=auto;html=1;fontFamily=Menlo, Roboto Mono, Courier New, Courier, monospace, Inter, sans-serif;" parent="1" source="9JrHhXIoi9-wvf1s2VBX-6" target="9JrHhXIoi9-wvf1s2VBX-12" edge="1">
          <mxGeometry relative="1" as="geometry" />
        </mxCell>
        <mxCell id="9JrHhXIoi9-wvf1s2VBX-6" value="&lt;div&gt;&lt;font style=&quot;font-size: 9px;&quot;&gt;&lt;font style=&quot;&quot;&gt;╔&lt;/font&gt;&lt;font style=&quot;&quot;&gt;════════════&lt;/font&gt;&lt;span style=&quot;color: light-dark(rgb(0, 0, 0), rgb(255, 255, 255)); background-color: transparent;&quot;&gt;═════════════════════════&lt;/span&gt;&lt;span style=&quot;color: light-dark(rgb(0, 0, 0), rgb(255, 255, 255)); background-color: transparent;&quot;&gt;════════════&lt;/span&gt;&lt;font style=&quot;&quot;&gt;╗&amp;nbsp;&amp;nbsp;&lt;/font&gt;&lt;/font&gt;&lt;/div&gt;&lt;div&gt;&lt;font style=&quot;font-size: 9px;&quot;&gt;&amp;nbsp; &lt;b&gt;&amp;nbsp;MAINTENANCE TUNNELS&amp;nbsp;&amp;nbsp;&lt;/b&gt;&lt;/font&gt;&lt;/div&gt;&lt;div&gt;&lt;font style=&quot;font-size: 9px;&quot;&gt;&lt;b&gt;&amp;nbsp; &amp;nbsp;The droid whirs weakly as you raise the tool.&lt;br&gt;&lt;/b&gt;&lt;/font&gt;&lt;div&gt;&lt;font style=&quot;font-size: 9px;&quot;&gt;&amp;lt;&amp;lt; ITEMS: ~No items are available~&amp;nbsp;&amp;nbsp;&lt;/font&gt;&lt;/div&gt;&lt;span style=&quot;font-size: 9px; background-color: transparent; color: light-dark(rgb(0, 0, 0), rgb(255, 255, 255));&quot;&gt;&amp;nbsp;&amp;lt;&amp;lt; OBSTACLE:&amp;nbsp;&amp;nbsp;&lt;/span&gt;&lt;span style=&quot;font-size: 9px; background-color: transparent; color: light-dark(rgb(0, 0, 0), rgb(255, 255, 255));&quot;&gt;&amp;nbsp;&lt;i&gt;Droid&amp;nbsp;&lt;/i&gt;beeps angrily&amp;nbsp;&lt;/span&gt;&lt;font style=&quot;font-size: 9px;&quot;&gt;&amp;nbsp;&amp;nbsp;&lt;/font&gt;&lt;/div&gt;&lt;div&gt;&lt;span style=&quot;font-size: 9px; background-color: transparent; color: light-dark(rgb(0, 0, 0), rgb(255, 255, 255));&quot;&gt;&amp;nbsp; &amp;lt;&amp;lt; HINT:&amp;nbsp;&lt;/span&gt;&lt;span style=&quot;font-size: 9px; background-color: transparent; color: light-dark(rgb(0, 0, 0), rgb(255, 255, 255));&quot;&gt;&lt;i&gt;use tool&lt;/i&gt;&amp;nbsp;to fix it.&lt;br&gt;&amp;nbsp;&lt;/span&gt;&lt;span style=&quot;font-size: 9px; background-color: transparent; color: light-dark(rgb(0, 0, 0), rgb(255, 255, 255));&quot;&gt;&amp;lt;&amp;lt; EXITS: [east]&lt;/span&gt;&lt;span style=&quot;background-color: transparent; color: light-dark(rgb(0, 0, 0), rgb(255, 255, 255)); font-size: 9px;&quot;&gt;&amp;nbsp;&lt;/span&gt;&lt;/div&gt;&lt;div&gt;&lt;font style=&quot;font-size: 9px;&quot;&gt;&lt;font style=&quot;&quot;&gt;╚&lt;/font&gt;&lt;font style=&quot;&quot;&gt;════════════&lt;/font&gt;&lt;span style=&quot;color: light-dark(rgb(0, 0, 0), rgb(255, 255, 255)); background-color: transparent;&quot;&gt;═════════════════════════&lt;/span&gt;&lt;span style=&quot;color: light-dark(rgb(0, 0, 0), rgb(255, 255, 255)); background-color: transparent;&quot;&gt;════════════&lt;/span&gt;&lt;font style=&quot;&quot;&gt;╝&amp;nbsp;&amp;nbsp;&lt;/font&gt;&lt;/font&gt;&lt;/div&gt;" style="whiteSpace=wrap;html=1;fontSize=11;rounded=0;fillColor=#FFE599;strokeWidth=3;fontFamily=Menlo, Roboto Mono, Courier New, Courier, monospace, Inter, sans-serif;" parent="1" vertex="1">
          <mxGeometry x="317.43" y="361" width="323.5" height="110" as="geometry" />
        </mxCell>
        <mxCell id="qcSpwPFvcaWvg-GxJBlB-8" value="" style="edgeStyle=orthogonalEdgeStyle;rounded=0;orthogonalLoop=1;jettySize=auto;html=1;fontFamily=Menlo, Roboto Mono, Courier New, Courier, monospace, Inter, sans-serif;" parent="1" source="9JrHhXIoi9-wvf1s2VBX-12" target="9JrHhXIoi9-wvf1s2VBX-15" edge="1">
          <mxGeometry relative="1" as="geometry">
            <Array as="points">
              <mxPoint x="474.68" y="551" />
              <mxPoint x="474.68" y="551" />
            </Array>
          </mxGeometry>
        </mxCell>
        <mxCell id="9JrHhXIoi9-wvf1s2VBX-12" value="&lt;div style=&quot;overflow: auto; padding: 9.144px 13.716px; word-break: break-all; margin: 0px !important;&quot;&gt;&lt;div style=&quot;text-wrap-mode: wrap;&quot;&gt;&lt;b style=&quot;white-space-collapse: collapse; background-color: transparent; color: light-dark(rgb(0, 0, 0), rgb(255, 255, 255));&quot;&gt;&amp;gt;&amp;gt; Use Tool&lt;/b&gt;&lt;/div&gt;&lt;div style=&quot;&quot;&gt;&lt;font&gt;&lt;span style=&quot;white-space: normal;&quot;&gt;&lt;b&gt;•••&lt;/b&gt;&lt;/span&gt;&lt;span style=&quot;text-wrap-mode: wrap;&quot;&gt;&lt;/span&gt;&lt;/font&gt;&lt;/div&gt;&lt;div style=&quot;text-wrap-mode: wrap;&quot;&gt;&lt;span style=&quot;white-space-collapse: collapse; background-color: transparent; color: light-dark(rgb(0, 0, 0), rgb(255, 255, 255));&quot;&gt;&lt;i&gt;Droid reboots! It salutes and shuffles aside. [+20]&amp;nbsp;&amp;nbsp;&lt;/i&gt;&lt;/span&gt;&lt;/div&gt;&lt;i style=&quot;&quot;&gt;&lt;font&gt;&lt;span style=&quot;text-wrap-mode: wrap;&quot;&gt;   (SCORE: 30 | HAZARDS: 1)&lt;br&gt;•••&lt;/span&gt;&lt;/font&gt;&lt;/i&gt;&lt;/div&gt;" style="whiteSpace=wrap;html=1;fontSize=9;rounded=0;fillColor=#FFE599;strokeWidth=3;align=center;fontFamily=Menlo, Roboto Mono, Courier New, Courier, monospace, Inter, sans-serif;" parent="1" vertex="1">
          <mxGeometry x="309.25" y="481" width="339.86" height="60" as="geometry" />
        </mxCell>
        <mxCell id="9JrHhXIoi9-wvf1s2VBX-18" value="" style="edgeStyle=orthogonalEdgeStyle;rounded=0;orthogonalLoop=1;jettySize=auto;html=1;fontFamily=Menlo, Roboto Mono, Courier New, Courier, monospace, Inter, sans-serif;" parent="1" source="9JrHhXIoi9-wvf1s2VBX-15" target="9JrHhXIoi9-wvf1s2VBX-17" edge="1">
          <mxGeometry relative="1" as="geometry" />
        </mxCell>
        <mxCell id="9JrHhXIoi9-wvf1s2VBX-15" value="&lt;div style=&quot;overflow: auto; padding: 9.144px 13.716px; word-break: break-all; margin: 0px !important;&quot;&gt;&lt;font&gt;&lt;span style=&quot;text-wrap-mode: wrap;&quot;&gt;╔════════════════════════════════════════════╗  &lt;br&gt;   &lt;b&gt;MAINTENANCE TUNNELS  &lt;br&gt;   The corridor to the Docking Bay is now clear.&lt;/b&gt;  &lt;br&gt;&lt;/span&gt;&lt;/font&gt;&lt;div style=&quot;font-size: 11px; white-space: normal;&quot;&gt;&lt;div&gt;&lt;font style=&quot;font-size: 9px;&quot;&gt;&amp;lt; ITEMS: ~No items are available~&amp;nbsp;&amp;nbsp;&lt;/font&gt;&lt;/div&gt;&lt;span style=&quot;font-size: 9px; background-color: transparent; color: light-dark(rgb(0, 0, 0), rgb(255, 255, 255));&quot;&gt;&amp;nbsp;&amp;lt;&amp;lt; OBSTACLE: ~No obstacles~&lt;/span&gt;&lt;span style=&quot;font-size: 9px; background-color: transparent; color: light-dark(rgb(0, 0, 0), rgb(255, 255, 255));&quot;&gt;&amp;nbsp;&lt;/span&gt;&lt;font style=&quot;font-size: 9px;&quot;&gt;&amp;nbsp;&amp;nbsp;&lt;/font&gt;&lt;/div&gt;&amp;nbsp;&lt;span style=&quot;white-space: normal; background-color: transparent; color: light-dark(rgb(0, 0, 0), rgb(255, 255, 255));&quot;&gt;&amp;lt;&amp;lt; EXITS: [east]&lt;/span&gt;&lt;font&gt;&lt;span style=&quot;text-wrap-mode: wrap;&quot;&gt; &lt;br&gt;╚════════════════════════════════════════════╝  &lt;/span&gt;&lt;/font&gt;&lt;/div&gt;" style="whiteSpace=wrap;html=1;fontSize=9;rounded=0;fillColor=#FFE599;strokeWidth=3;align=center;fontFamily=Menlo, Roboto Mono, Courier New, Courier, monospace, Inter, sans-serif;" parent="1" vertex="1">
          <mxGeometry x="312.56" y="551" width="335" height="90" as="geometry" />
        </mxCell>
        <mxCell id="9JrHhXIoi9-wvf1s2VBX-21" value="" style="edgeStyle=orthogonalEdgeStyle;rounded=0;orthogonalLoop=1;jettySize=auto;html=1;entryX=0.5;entryY=0;entryDx=0;entryDy=0;fontFamily=Menlo, Roboto Mono, Courier New, Courier, monospace, Inter, sans-serif;" parent="1" source="9JrHhXIoi9-wvf1s2VBX-17" target="qcSpwPFvcaWvg-GxJBlB-5" edge="1">
          <mxGeometry relative="1" as="geometry">
            <mxPoint x="479.68" y="731" as="targetPoint" />
          </mxGeometry>
        </mxCell>
        <mxCell id="9JrHhXIoi9-wvf1s2VBX-17" value="&lt;font&gt;&lt;b style=&quot;&quot;&gt;&amp;gt;&amp;gt; Move East&lt;br&gt;&lt;/b&gt;&lt;i style=&quot;background-color: transparent;&quot;&gt;&lt;font&gt;•••&lt;/font&gt;&lt;/i&gt;&lt;br&gt;&lt;i style=&quot;&quot;&gt;You enter the DOCKING BAY.&lt;br&gt;(SCORE: 30 | HAZARDS: 1)&lt;br&gt;&lt;/i&gt;&lt;i style=&quot;background-color: transparent;&quot;&gt;&lt;font style=&quot;&quot;&gt;•••&lt;/font&gt;&lt;/i&gt;&lt;/font&gt;" style="whiteSpace=wrap;html=1;fontSize=9;rounded=0;fillColor=#FFE599;strokeWidth=3;fontFamily=Menlo, Roboto Mono, Courier New, Courier, monospace, Inter, sans-serif;" parent="1" vertex="1">
          <mxGeometry x="363.86" y="661" width="232.38" height="60" as="geometry" />
        </mxCell>
        <mxCell id="1EWVFiG9j-QCH-CJ6pgE-4" value="" style="edgeStyle=orthogonalEdgeStyle;rounded=0;orthogonalLoop=1;jettySize=auto;html=1;fontFamily=Menlo, Roboto Mono, Courier New, Courier, monospace, Inter, sans-serif;exitX=1;exitY=0.5;exitDx=0;exitDy=0;" parent="1" source="qcSpwPFvcaWvg-GxJBlB-10" target="1EWVFiG9j-QCH-CJ6pgE-3" edge="1">
          <mxGeometry relative="1" as="geometry">
            <mxPoint x="606.68" y="1048.88" as="sourcePoint" />
          </mxGeometry>
        </mxCell>
        <mxCell id="1EWVFiG9j-QCH-CJ6pgE-5" value="Status" style="edgeLabel;html=1;align=center;verticalAlign=middle;resizable=0;points=[];fontFamily=Menlo, Roboto Mono, Courier New, Courier, monospace, Inter, sans-serif;" parent="1EWVFiG9j-QCH-CJ6pgE-4" vertex="1" connectable="0">
          <mxGeometry x="-0.399" y="1" relative="1" as="geometry">
            <mxPoint x="6" y="1" as="offset" />
          </mxGeometry>
        </mxCell>
        <mxCell id="1EWVFiG9j-QCH-CJ6pgE-6" style="edgeStyle=orthogonalEdgeStyle;rounded=0;orthogonalLoop=1;jettySize=auto;html=1;fontFamily=Menlo, Roboto Mono, Courier New, Courier, monospace, Inter, sans-serif;entryX=1;entryY=0.75;entryDx=0;entryDy=0;" parent="1" source="1EWVFiG9j-QCH-CJ6pgE-3" target="qcSpwPFvcaWvg-GxJBlB-10" edge="1">
          <mxGeometry relative="1" as="geometry">
            <Array as="points">
              <mxPoint x="750" y="996" />
              <mxPoint x="625" y="996" />
            </Array>
            <mxPoint x="660" y="1010" as="targetPoint" />
          </mxGeometry>
        </mxCell>
        <mxCell id="1EWVFiG9j-QCH-CJ6pgE-3" value="&lt;b style=&quot;&quot;&gt;•••&lt;/b&gt;&lt;i&gt;&lt;br&gt;(SCORE: 80 | HAZARDS: 1)&lt;br&gt;&lt;/i&gt;&lt;b style=&quot;&quot;&gt;•••&lt;/b&gt;&lt;i&gt;&lt;/i&gt;" style="whiteSpace=wrap;html=1;fontSize=9;fillColor=#FFE599;rounded=0;strokeWidth=3;fontFamily=Menlo, Roboto Mono, Courier New, Courier, monospace, Inter, sans-serif;" parent="1" vertex="1">
          <mxGeometry x="679.5599999999998" y="957.97" width="140" height="31.69" as="geometry" />
        </mxCell>
        <mxCell id="1EWVFiG9j-QCH-CJ6pgE-10" value="&lt;div&gt;&amp;nbsp;&lt;b&gt;&amp;gt;&amp;gt; win&lt;/b&gt;&lt;br&gt;🚀 MISSION COMPLETE!&amp;nbsp;&amp;nbsp;&lt;/div&gt;&lt;div&gt;&amp;nbsp; &amp;nbsp;FINAL SCORE: 110 (80 + 30 bonus)&amp;nbsp;&amp;nbsp;&lt;/div&gt;&lt;div&gt;&amp;nbsp; &amp;nbsp;HAZARDS ENCOUNTERED: 1&amp;nbsp;&amp;nbsp;&lt;/div&gt;&lt;div&gt;&amp;nbsp; &amp;nbsp;&quot;Orbital Station saved. Well done, Engineer.&quot;&amp;nbsp;&amp;nbsp;&lt;/div&gt;" style="whiteSpace=wrap;html=1;fontSize=9;fillColor=#FFE599;rounded=0;strokeWidth=3;fontFamily=Menlo, Roboto Mono, Courier New, Courier, monospace, Inter, sans-serif;" parent="1" vertex="1">
          <mxGeometry x="10" y="957.97" width="295.5" height="56.25" as="geometry" />
        </mxCell>
        <mxCell id="Tv1CAdfoN1yfGRxtjIU--5" value="" style="edgeStyle=orthogonalEdgeStyle;rounded=0;orthogonalLoop=1;jettySize=auto;html=1;entryX=0.5;entryY=0;entryDx=0;entryDy=0;" edge="1" parent="1" source="qcSpwPFvcaWvg-GxJBlB-4" target="thDXJ9rHC7QRxlY3D63U-5">
          <mxGeometry relative="1" as="geometry">
            <mxPoint x="480" y="90" as="targetPoint" />
            <Array as="points">
              <mxPoint x="480" y="90" />
              <mxPoint x="480" y="90" />
            </Array>
          </mxGeometry>
        </mxCell>
        <mxCell id="qcSpwPFvcaWvg-GxJBlB-4" value="&lt;div&gt;&lt;font&gt;╔&lt;/font&gt;&lt;span style=&quot;&quot;&gt;═════════════════════════&lt;/span&gt;&lt;span style=&quot;background-color: transparent; color: light-dark(rgb(0, 0, 0), rgb(255, 255, 255));&quot;&gt;═════════════════════════&lt;/span&gt;&lt;span style=&quot;background-color: transparent; color: light-dark(rgb(0, 0, 0), rgb(255, 255, 255));&quot;&gt;╗&amp;nbsp;&amp;nbsp;&lt;/span&gt;&lt;/div&gt;&lt;div&gt;&lt;b&gt;&lt;font&gt;&amp;nbsp; &amp;nbsp;MAINTENANCE TUNNELS&amp;nbsp;&amp;nbsp;&lt;/font&gt;&lt;/b&gt;&lt;/div&gt;&lt;div&gt;&lt;font&gt;&lt;b&gt;&amp;nbsp; &amp;nbsp;&lt;/b&gt;&lt;span style=&quot;background-color: transparent; color: light-dark(rgb(0, 0, 0), rgb(255, 255, 255));&quot;&gt;&lt;b&gt;Flickering lights reveal a sparking droid blocking the east tunnel.&lt;/b&gt;&amp;nbsp;&lt;/span&gt;&lt;/font&gt;&lt;/div&gt;&lt;div&gt;&lt;font&gt;&amp;nbsp; &amp;nbsp;&amp;lt;&amp;lt; ITEMS: &lt;i&gt;Diagnostic Tool&lt;/i&gt; glows on the floor&amp;nbsp;&amp;nbsp;&lt;br&gt;&amp;lt;&amp;lt; OBSTACLE:&amp;nbsp;&amp;nbsp;&lt;span style=&quot;color: light-dark(rgb(0, 0, 0), rgb(255, 255, 255)); background-color: transparent;&quot;&gt;&amp;nbsp;&lt;i&gt;Droid&amp;nbsp;&lt;/i&gt;beeps angrily&amp;nbsp;&lt;/span&gt;&lt;/font&gt;&lt;/div&gt;&lt;div&gt;&lt;font&gt;&amp;nbsp;&amp;lt;&amp;lt;&amp;nbsp; EXITS: [east]&amp;nbsp;&amp;nbsp;&lt;/font&gt;&lt;/div&gt;&lt;div&gt;&lt;font&gt;╚════════════&lt;/font&gt;&lt;span style=&quot;background-color: transparent; color: light-dark(rgb(0, 0, 0), rgb(255, 255, 255));&quot;&gt;═════════════════════════&lt;/span&gt;&lt;span style=&quot;background-color: transparent; color: light-dark(rgb(0, 0, 0), rgb(255, 255, 255));&quot;&gt;════════════╝&amp;nbsp;&amp;nbsp;&lt;/span&gt;&lt;/div&gt;" style="whiteSpace=wrap;html=1;fontSize=9;rounded=0;fillColor=#FFE599;strokeWidth=3;fontFamily=Menlo, Roboto Mono, Courier New, Courier, monospace, Inter, sans-serif;" parent="1" vertex="1">
          <mxGeometry x="282.55" y="1" width="395" height="80" as="geometry" />
        </mxCell>
        <mxCell id="qcSpwPFvcaWvg-GxJBlB-7" value="" style="edgeStyle=orthogonalEdgeStyle;rounded=0;orthogonalLoop=1;jettySize=auto;html=1;fontFamily=Menlo, Roboto Mono, Courier New, Courier, monospace, Inter, sans-serif;" parent="1" source="qcSpwPFvcaWvg-GxJBlB-5" target="qcSpwPFvcaWvg-GxJBlB-6" edge="1">
          <mxGeometry relative="1" as="geometry" />
        </mxCell>
        <mxCell id="qcSpwPFvcaWvg-GxJBlB-5" value="&lt;div style=&quot;overflow: auto; padding: 9.144px 13.716px; word-break: break-all; margin: 0px !important;&quot;&gt;&lt;font&gt;&lt;span style=&quot;text-wrap-mode: wrap;&quot;&gt;╔════════════════════════════════════════════╗  &lt;br&gt;   &lt;/span&gt;&lt;b style=&quot;text-wrap-mode: wrap;&quot;&gt;DOCKING BAY &lt;br&gt;   &lt;/b&gt;&lt;span style=&quot;text-wrap-mode: wrap;&quot;&gt;&lt;b style=&quot;&quot;&gt;&lt;i&gt; &lt;/i&gt;Debris floats with no gravity, near a shattered window. &lt;/b&gt;&lt;/span&gt;&lt;span style=&quot;text-wrap-mode: wrap;&quot;&gt;  &lt;br&gt;&lt;/span&gt;&lt;/font&gt;&lt;div style=&quot;&quot;&gt;&lt;div style=&quot;&quot;&gt;&lt;font style=&quot;font-size: 9px; white-space: normal;&quot;&gt;&amp;lt;&amp;lt; ITEMS:&amp;nbsp;&lt;/font&gt;&lt;span style=&quot;background-color: transparent; white-space: normal;&quot;&gt;&lt;font&gt;A glowing ENERGY CRYSTAL is lodged in the wall...&lt;/font&gt;&lt;/span&gt;&lt;span style=&quot;font-size: 9px; white-space: normal; background-color: transparent; color: light-dark(rgb(0, 0, 0), rgb(255, 255, 255));&quot;&gt;&amp;nbsp;&amp;nbsp;&lt;/span&gt;&lt;/div&gt;&lt;span style=&quot;font-size: 9px; white-space: normal; background-color: transparent; color: light-dark(rgb(0, 0, 0), rgb(255, 255, 255));&quot;&gt;&amp;nbsp;&amp;lt;&amp;lt; OBSTACLE: The escape pod&#39;s hatch is lodged shut, thank&#39;s to the broken gravity generators&lt;/span&gt;&lt;font style=&quot;font-size: 9px; white-space: normal;&quot;&gt;&amp;nbsp;&amp;nbsp;&lt;/font&gt;&lt;/div&gt;&amp;nbsp;&lt;span style=&quot;white-space: normal; background-color: transparent; color: light-dark(rgb(0, 0, 0), rgb(255, 255, 255));&quot;&gt;&amp;lt;&amp;lt; EXITS: [west]&lt;/span&gt;&lt;font&gt;&lt;span style=&quot;text-wrap-mode: wrap;&quot;&gt; &lt;br&gt;╚════════════════════════════════════════════╝  &lt;/span&gt;&lt;/font&gt;&lt;/div&gt;" style="whiteSpace=wrap;html=1;fontSize=9;rounded=0;fillColor=#FFE599;strokeWidth=3;align=center;fontFamily=Menlo, Roboto Mono, Courier New, Courier, monospace, Inter, sans-serif;" parent="1" vertex="1">
          <mxGeometry x="280.56" y="741" width="399" height="90" as="geometry" />
        </mxCell>
        <mxCell id="Tv1CAdfoN1yfGRxtjIU--3" value="" style="edgeStyle=orthogonalEdgeStyle;rounded=0;orthogonalLoop=1;jettySize=auto;html=1;entryX=0.5;entryY=0;entryDx=0;entryDy=0;" edge="1" parent="1" source="qcSpwPFvcaWvg-GxJBlB-6" target="qcSpwPFvcaWvg-GxJBlB-10">
          <mxGeometry relative="1" as="geometry" />
        </mxCell>
        <mxCell id="qcSpwPFvcaWvg-GxJBlB-6" value="&lt;font&gt;&lt;b style=&quot;&quot;&gt;&amp;gt;&amp;gt; Pickup Crystal&lt;br&gt;&lt;/b&gt;&lt;i style=&quot;background-color: transparent;&quot;&gt;&lt;font&gt;•••&lt;/font&gt;&lt;/i&gt;&lt;br&gt;&lt;i style=&quot;&quot;&gt;The cyrstal vibrates in your palm. You drop to the ground as the gravity resets! [+50]&lt;br&gt;(SCORE: 80 | HAZARDS: 1)&lt;br&gt;&lt;/i&gt;&lt;i style=&quot;background-color: transparent;&quot;&gt;&lt;font style=&quot;&quot;&gt;•••&lt;/font&gt;&lt;/i&gt;&lt;/font&gt;" style="whiteSpace=wrap;html=1;fontSize=9;rounded=0;fillColor=#FFE599;strokeWidth=3;fontFamily=Menlo, Roboto Mono, Courier New, Courier, monospace, Inter, sans-serif;" parent="1" vertex="1">
          <mxGeometry x="341.05" y="851" width="278.01" height="67" as="geometry" />
        </mxCell>
        <mxCell id="Tv1CAdfoN1yfGRxtjIU--4" value="" style="edgeStyle=orthogonalEdgeStyle;rounded=0;orthogonalLoop=1;jettySize=auto;html=1;" edge="1" parent="1" source="qcSpwPFvcaWvg-GxJBlB-10" target="qcSpwPFvcaWvg-GxJBlB-11">
          <mxGeometry relative="1" as="geometry" />
        </mxCell>
        <mxCell id="qcSpwPFvcaWvg-GxJBlB-10" value="&lt;div style=&quot;overflow: auto; padding: 9.144px 13.716px; word-break: break-all; margin: 0px !important;&quot;&gt;&lt;font&gt;&lt;span style=&quot;text-wrap-mode: wrap;&quot;&gt;╔════════════════════════════════════════════╗  &lt;br&gt;   &lt;/span&gt;&lt;b style=&quot;text-wrap-mode: wrap;&quot;&gt;DOCKING BAY &lt;br&gt;   &lt;/b&gt;&lt;span style=&quot;text-wrap-mode: wrap;&quot;&gt;&lt;b style=&quot;&quot;&gt;&lt;i&gt; &lt;/i&gt;The escape pod hatch glows green - Almost there &lt;/b&gt;&lt;/span&gt;&lt;span style=&quot;text-wrap-mode: wrap;&quot;&gt;  &lt;br&gt;&lt;/span&gt;&lt;/font&gt;&lt;div style=&quot;&quot;&gt;&lt;div style=&quot;&quot;&gt;&lt;font style=&quot;font-size: 9px; white-space: normal;&quot;&gt;&amp;lt;&amp;lt; ITEMS: ~No items available~&lt;/font&gt;&lt;/div&gt;&lt;span style=&quot;font-size: 9px; white-space: normal; background-color: transparent; color: light-dark(rgb(0, 0, 0), rgb(255, 255, 255));&quot;&gt;&amp;nbsp;&amp;lt;&amp;lt; OBSTACLE: ~No obstacles~&lt;/span&gt;&lt;font style=&quot;font-size: 9px; white-space: normal;&quot;&gt;&amp;nbsp;&lt;/font&gt;&lt;/div&gt;&lt;div style=&quot;&quot;&gt;&lt;font style=&quot;font-size: 9px; white-space: normal;&quot;&gt;&amp;lt;&amp;lt; HINT: &lt;i&gt;Your exit is wide open!&lt;/i&gt;&lt;/font&gt;&lt;/div&gt;&amp;nbsp;&lt;span style=&quot;white-space: normal; background-color: transparent; color: light-dark(rgb(0, 0, 0), rgb(255, 255, 255));&quot;&gt;&amp;lt;&amp;lt; EXITS: [west]&lt;/span&gt;&lt;font&gt;&lt;span style=&quot;text-wrap-mode: wrap;&quot;&gt; &lt;br&gt;╚════════════════════════════════════════════╝  &lt;/span&gt;&lt;/font&gt;&lt;/div&gt;" style="whiteSpace=wrap;html=1;fontSize=9;rounded=0;fillColor=#FFE599;strokeWidth=3;align=center;fontFamily=Menlo, Roboto Mono, Courier New, Courier, monospace, Inter, sans-serif;" parent="1" vertex="1">
          <mxGeometry x="335.06" y="930" width="290" height="87.62" as="geometry" />
        </mxCell>
        <mxCell id="Tv1CAdfoN1yfGRxtjIU--9" value="" style="edgeStyle=orthogonalEdgeStyle;rounded=0;orthogonalLoop=1;jettySize=auto;html=1;entryX=1;entryY=0.75;entryDx=0;entryDy=0;" edge="1" parent="1" source="qcSpwPFvcaWvg-GxJBlB-11" target="Tv1CAdfoN1yfGRxtjIU--6">
          <mxGeometry relative="1" as="geometry">
            <Array as="points">
              <mxPoint x="370" y="1107" />
            </Array>
          </mxGeometry>
        </mxCell>
        <mxCell id="qcSpwPFvcaWvg-GxJBlB-11" value="&lt;font&gt;&lt;b&gt;&amp;gt;&amp;gt; Move west&lt;br&gt;&lt;/b&gt;&lt;i style=&quot;background-color: transparent;&quot;&gt;&lt;font&gt;•••&lt;/font&gt;&lt;/i&gt;&lt;br&gt;&lt;i&gt;You climb into the escape hatch. The control panel infront of you slowly comes to live, dials and measures spinning. [+50]&lt;br&gt;(SCORE: 80 | HAZARDS: 1)&lt;br&gt;&lt;/i&gt;&lt;i style=&quot;background-color: transparent;&quot;&gt;&lt;font&gt;•••&lt;/font&gt;&lt;/i&gt;&lt;/font&gt;" style="whiteSpace=wrap;html=1;fontSize=8;rounded=0;fillColor=#FFE599;strokeWidth=3;fontFamily=Menlo, Roboto Mono, Courier New, Courier, monospace, Inter, sans-serif;" parent="1" vertex="1">
          <mxGeometry x="278.9" y="1031" width="402.32" height="60" as="geometry" />
        </mxCell>
        <mxCell id="Tv1CAdfoN1yfGRxtjIU--10" style="edgeStyle=orthogonalEdgeStyle;rounded=0;orthogonalLoop=1;jettySize=auto;html=1;entryX=0.5;entryY=1;entryDx=0;entryDy=0;" edge="1" parent="1" source="Tv1CAdfoN1yfGRxtjIU--6" target="1EWVFiG9j-QCH-CJ6pgE-10">
          <mxGeometry relative="1" as="geometry" />
        </mxCell>
        <mxCell id="Tv1CAdfoN1yfGRxtjIU--6" value="&lt;div style=&quot;overflow: auto; padding: 9.144px 13.716px; word-break: break-all; margin: 0px !important;&quot;&gt;&lt;font style=&quot;font-size: 8px;&quot;&gt;&lt;span style=&quot;text-wrap-mode: wrap;&quot;&gt;╔════════════════════════════════════════════╗  &lt;br&gt;&lt;/span&gt;&lt;b style=&quot;text-wrap-mode: wrap;&quot;&gt;LAUNCH PAD&lt;br&gt;&lt;/b&gt;&lt;span style=&quot;text-wrap-mode: wrap;&quot;&gt;&lt;b&gt;The escape pod is ready to launch!&lt;/b&gt;&lt;br&gt;&lt;/span&gt;&lt;/font&gt;&lt;div style=&quot;&quot;&gt;&lt;div style=&quot;&quot;&gt;&lt;font style=&quot;white-space: normal; font-size: 8px;&quot;&gt;&amp;lt;&amp;lt; ITEMS: ~No items available~&lt;/font&gt;&lt;/div&gt;&lt;font style=&quot;font-size: 8px;&quot;&gt;&lt;span style=&quot;white-space: normal; background-color: transparent; color: light-dark(rgb(0, 0, 0), rgb(255, 255, 255));&quot;&gt;&amp;nbsp;&amp;lt;&amp;lt; OBSTACLE: ~No obstacles~&lt;/span&gt;&lt;font style=&quot;white-space: normal;&quot;&gt;&amp;nbsp;&lt;/font&gt;&lt;/font&gt;&lt;/div&gt;&lt;div style=&quot;&quot;&gt;&lt;font style=&quot;white-space: normal; font-size: 8px;&quot;&gt;&amp;lt;&amp;lt; HINT: Type&lt;i&gt;&amp;nbsp;win &lt;/i&gt;to launch!&lt;/font&gt;&lt;/div&gt;&lt;font style=&quot;font-size: 8px;&quot;&gt;&amp;nbsp;&lt;span style=&quot;white-space: normal; background-color: transparent; color: light-dark(rgb(0, 0, 0), rgb(255, 255, 255));&quot;&gt;&amp;lt;&amp;lt; EXITS: [west]&lt;/span&gt;&lt;font&gt;&lt;span style=&quot;text-wrap-mode: wrap;&quot;&gt; &lt;br&gt;╚════════════════════════════════════════════╝  &lt;/span&gt;&lt;/font&gt;&lt;/font&gt;&lt;/div&gt;" style="whiteSpace=wrap;html=1;fontSize=9;rounded=0;fillColor=#FFE599;strokeWidth=3;align=center;fontFamily=Menlo, Roboto Mono, Courier New, Courier, monospace, Inter, sans-serif;" vertex="1" parent="1">
          <mxGeometry x="10" y="1040" width="260" height="90" as="geometry" />
        </mxCell>
      </root>
    </mxGraphModel>
  </diagram>
</mxfile>
